<?xml version="1.0" encoding="UTF-8" standalone="no"?>
<!DOCTYPE svg PUBLIC "-//W3C//DTD SVG 1.1//EN" "http://www.w3.org/Graphics/SVG/1.1/DTD/svg11.dtd">
<svg xmlns="http://www.w3.org/2000/svg" version="1.1" viewBox="0.00 0.00 339.00 339.00">
<g stroke-width="2.00" fill="none" stroke-linecap="butt">
<path stroke="#808080" vector-effect="non-scaling-stroke" d="
  M 241.19 33.68
  C 224.66 26.11 203.93 20.62 184.31 20.05
  Q 171.42 19.67 161.02 20.35
  Q 142.36 21.58 120.87 29.11
  C 90.52 39.74 64.14 63.54 51.33 93.65
  Q 46.40 105.25 43.54 115.10
  Q 38.15 133.64 38.40 153.37
  Q 38.56 165.87 41.34 176.05
  Q 46.54 195.15 57.23 215.43
  Q 57.98 216.84 59.46 217.11
  A 0.49 0.48 85.6 0 0 60.00 216.47
  Q 57.61 209.86 55.77 203.62
  Q 45.13 167.57 52.30 131.15
  C 57.91 102.64 74.84 76.80 99.07 60.35
  Q 116.40 48.59 139.31 42.95
  Q 155.02 39.08 165.50 38.01
  C 180.67 36.45 199.40 36.27 216.19 38.29
  Q 236.13 40.70 252.85 42.93
  Q 255.05 43.22 256.90 42.62
  A 0.54 0.53 50.4 0 0 256.99 41.64
  Q 248.99 37.25 241.19 33.68"
/>
<path stroke="#808080" vector-effect="non-scaling-stroke" d="
  M 114.12 300.46
  Q 114.14 300.23 114.37 300.24
  Q 118.33 300.32 122.13 299.13
  Q 134.64 295.20 146.76 289.12
  C 149.01 287.99 152.06 287.13 154.59 287.10
  Q 165.48 286.97 175.65 286.23
  C 202.46 284.29 231.51 273.18 249.35 252.89
  Q 262.33 238.13 270.37 218.24
  Q 274.75 207.41 275.63 198.28
  Q 276.75 186.66 275.29 178.23
  C 269.75 146.23 242.64 121.98 211.42 115.31
  Q 198.80 112.61 186.95 113.00
  Q 186.18 113.03 186.11 113.79
  Q 185.50 121.04 186.95 127.13
  Q 187.10 127.76 187.73 127.83
  C 201.35 129.34 213.87 132.31 225.91 139.02
  C 240.51 147.15 252.18 160.47 257.69 176.56
  Q 258.74 179.65 259.25 182.88
  C 261.08 194.49 260.66 208.52 255.76 219.55
  C 250.13 232.25 241.47 244.36 230.23 253.23
  Q 207.22 271.42 176.88 274.77
  Q 174.09 275.08 171.68 274.86
  A 0.86 0.86 0.0 0 1 171.14 273.40
  C 173.28 271.20 175.43 269.10 177.31 266.64
  C 187.95 252.69 197.46 237.39 204.97 221.33
  Q 208.32 214.18 212.15 206.81
  C 216.10 199.24 218.40 190.53 220.78 181.99
  Q 222.11 177.21 222.15 172.69
  C 222.20 166.80 212.86 164.10 208.35 163.32
  Q 200.55 161.98 192.57 162.00
  Q 176.82 162.03 159.00 163.00
  Q 152.02 163.38 145.92 162.08
  A 1.14 1.14 0.0 0 1 145.01 160.99
  Q 144.95 158.96 145.30 156.94
  Q 146.92 147.64 149.61 139.79
  Q 156.04 121.03 165.53 104.08
  C 172.85 91.02 183.73 79.98 195.24 69.95
  C 206.89 59.79 219.40 50.75 233.86 46.05
  Q 234.11 45.97 234.01 45.73
  L 233.89 45.44
  Q 233.69 44.95 233.16 45.02
  Q 224.71 46.16 216.99 47.15
  C 213.15 47.65 209.44 49.20 205.67 49.98
  Q 197.99 51.56 190.75 53.95
  C 183.28 56.42 176.81 56.98 169.28 57.27
  Q 158.94 57.67 145.35 60.19
  Q 133.20 62.45 122.90 67.09
  C 111.24 72.34 101.25 78.47 92.73 87.81
  C 79.40 102.44 69.17 122.72 67.36 143.02
  Q 65.32 165.99 75.23 186.29
  Q 81.32 198.77 90.24 206.46
  Q 117.38 229.86 153.90 226.81
  A 1.76 1.76 0.0 0 0 155.47 225.44
  Q 156.49 220.81 155.87 216.02
  C 155.68 214.56 154.24 213.68 152.94 213.48
  Q 146.25 212.43 139.61 211.38
  C 108.02 206.38 85.22 183.34 83.95 150.72
  Q 83.32 134.42 88.12 121.00
  C 96.66 97.15 118.60 80.35 142.31 73.49
  Q 153.23 70.34 162.45 69.21
  Q 166.61 68.70 171.40 69.09
  A 0.42 0.41 20.2 0 1 171.71 69.75
  C 166.03 77.51 159.33 84.41 153.52 91.99
  Q 141.68 107.43 133.24 124.40
  Q 126.32 138.33 123.64 152.77
  Q 122.46 159.15 122.83 167.52
  C 123.38 179.80 132.89 184.97 143.92 185.60
  Q 167.62 186.96 189.96 187.05
  Q 194.05 187.06 198.19 186.01
  A 0.44 0.44 0.0 0 1 198.71 186.58
  Q 198.37 187.51 197.82 188.30
  Q 191.67 197.11 187.88 207.01
  C 184.70 215.28 183.26 223.91 179.80 232.06
  Q 174.00 245.71 165.33 255.64
  C 152.39 270.48 138.08 283.24 121.35 293.59
  C 117.93 295.71 113.80 297.26 109.94 297.84
  C 105.72 298.48 100.81 299.08 97.17 301.39
  A 0.42 0.41 42.1 0 0 97.21 302.11
  C 99.28 303.14 101.63 303.15 103.70 304.09
  C 126.56 314.47 152.62 321.11 178.42 319.43
  Q 201.60 317.93 222.43 310.05
  C 245.45 301.33 264.99 285.73 279.19 265.67
  Q 299.87 236.44 301.84 200.07
  C 302.40 189.79 300.79 179.74 299.04 169.80
  Q 296.94 157.85 291.56 146.93
  C 289.45 142.64 286.53 139.58 282.45 137.27
  Q 281.77 136.89 281.04 136.99
  A 1.38 1.37 -17.6 0 0 280.01 138.97
  C 285.15 149.09 289.45 159.09 290.97 169.68
  C 292.40 179.72 293.48 189.51 292.14 199.51
  C 290.86 209.00 288.52 219.47 284.70 228.27
  C 270.51 261.00 244.39 284.53 210.34 295.79
  C 182.73 304.91 151.99 305.98 123.42 301.49
  C 120.40 301.02 117.31 301.01 114.28 300.93
  Q 114.09 300.92 114.10 300.74
  L 114.12 300.46"
/>
</g>
<path fill="#000000" d="
  M 0.00 0.00
  L 339.00 0.00
  L 339.00 339.00
  L 0.00 339.00
  L 0.00 0.00
  Z
  M 241.19 33.68
  C 224.66 26.11 203.93 20.62 184.31 20.05
  Q 171.42 19.67 161.02 20.35
  Q 142.36 21.58 120.87 29.11
  C 90.52 39.74 64.14 63.54 51.33 93.65
  Q 46.40 105.25 43.54 115.10
  Q 38.15 133.64 38.40 153.37
  Q 38.56 165.87 41.34 176.05
  Q 46.54 195.15 57.23 215.43
  Q 57.98 216.84 59.46 217.11
  A 0.49 0.48 85.6 0 0 60.00 216.47
  Q 57.61 209.86 55.77 203.62
  Q 45.13 167.57 52.30 131.15
  C 57.91 102.64 74.84 76.80 99.07 60.35
  Q 116.40 48.59 139.31 42.95
  Q 155.02 39.08 165.50 38.01
  C 180.67 36.45 199.40 36.27 216.19 38.29
  Q 236.13 40.70 252.85 42.93
  Q 255.05 43.22 256.90 42.62
  A 0.54 0.53 50.4 0 0 256.99 41.64
  Q 248.99 37.25 241.19 33.68
  Z
  M 114.12 300.46
  Q 114.14 300.23 114.37 300.24
  Q 118.33 300.32 122.13 299.13
  Q 134.64 295.20 146.76 289.12
  C 149.01 287.99 152.06 287.13 154.59 287.10
  Q 165.48 286.97 175.65 286.23
  C 202.46 284.29 231.51 273.18 249.35 252.89
  Q 262.33 238.13 270.37 218.24
  Q 274.75 207.41 275.63 198.28
  Q 276.75 186.66 275.29 178.23
  C 269.75 146.23 242.64 121.98 211.42 115.31
  Q 198.80 112.61 186.95 113.00
  Q 186.18 113.03 186.11 113.79
  Q 185.50 121.04 186.95 127.13
  Q 187.10 127.76 187.73 127.83
  C 201.35 129.34 213.87 132.31 225.91 139.02
  C 240.51 147.15 252.18 160.47 257.69 176.56
  Q 258.74 179.65 259.25 182.88
  C 261.08 194.49 260.66 208.52 255.76 219.55
  C 250.13 232.25 241.47 244.36 230.23 253.23
  Q 207.22 271.42 176.88 274.77
  Q 174.09 275.08 171.68 274.86
  A 0.86 0.86 0.0 0 1 171.14 273.40
  C 173.28 271.20 175.43 269.10 177.31 266.64
  C 187.95 252.69 197.46 237.39 204.97 221.33
  Q 208.32 214.18 212.15 206.81
  C 216.10 199.24 218.40 190.53 220.78 181.99
  Q 222.11 177.21 222.15 172.69
  C 222.20 166.80 212.86 164.10 208.35 163.32
  Q 200.55 161.98 192.57 162.00
  Q 176.82 162.03 159.00 163.00
  Q 152.02 163.38 145.92 162.08
  A 1.14 1.14 0.0 0 1 145.01 160.99
  Q 144.95 158.96 145.30 156.94
  Q 146.92 147.64 149.61 139.79
  Q 156.04 121.03 165.53 104.08
  C 172.85 91.02 183.73 79.98 195.24 69.95
  C 206.89 59.79 219.40 50.75 233.86 46.05
  Q 234.11 45.97 234.01 45.73
  L 233.89 45.44
  Q 233.69 44.95 233.16 45.02
  Q 224.71 46.16 216.99 47.15
  C 213.15 47.65 209.44 49.20 205.67 49.98
  Q 197.99 51.56 190.75 53.95
  C 183.28 56.42 176.81 56.98 169.28 57.27
  Q 158.94 57.67 145.35 60.19
  Q 133.20 62.45 122.90 67.09
  C 111.24 72.34 101.25 78.47 92.73 87.81
  C 79.40 102.44 69.17 122.72 67.36 143.02
  Q 65.32 165.99 75.23 186.29
  Q 81.32 198.77 90.24 206.46
  Q 117.38 229.86 153.90 226.81
  A 1.76 1.76 0.0 0 0 155.47 225.44
  Q 156.49 220.81 155.87 216.02
  C 155.68 214.56 154.24 213.68 152.94 213.48
  Q 146.25 212.43 139.61 211.38
  C 108.02 206.38 85.22 183.34 83.95 150.72
  Q 83.32 134.42 88.12 121.00
  C 96.66 97.15 118.60 80.35 142.31 73.49
  Q 153.23 70.34 162.45 69.21
  Q 166.61 68.70 171.40 69.09
  A 0.42 0.41 20.2 0 1 171.71 69.75
  C 166.03 77.51 159.33 84.41 153.52 91.99
  Q 141.68 107.43 133.24 124.40
  Q 126.32 138.33 123.64 152.77
  Q 122.46 159.15 122.83 167.52
  C 123.38 179.80 132.89 184.97 143.92 185.60
  Q 167.62 186.96 189.96 187.05
  Q 194.05 187.06 198.19 186.01
  A 0.44 0.44 0.0 0 1 198.71 186.58
  Q 198.37 187.51 197.82 188.30
  Q 191.67 197.11 187.88 207.01
  C 184.70 215.28 183.26 223.91 179.80 232.06
  Q 174.00 245.71 165.33 255.64
  C 152.39 270.48 138.08 283.24 121.35 293.59
  C 117.93 295.71 113.80 297.26 109.94 297.84
  C 105.72 298.48 100.81 299.08 97.17 301.39
  A 0.42 0.41 42.1 0 0 97.21 302.11
  C 99.28 303.14 101.63 303.15 103.70 304.09
  C 126.56 314.47 152.62 321.11 178.42 319.43
  Q 201.60 317.93 222.43 310.05
  C 245.45 301.33 264.99 285.73 279.19 265.67
  Q 299.87 236.44 301.84 200.07
  C 302.40 189.79 300.79 179.74 299.04 169.80
  Q 296.94 157.85 291.56 146.93
  C 289.45 142.64 286.53 139.58 282.45 137.27
  Q 281.77 136.89 281.04 136.99
  A 1.38 1.37 -17.6 0 0 280.01 138.97
  C 285.15 149.09 289.45 159.09 290.97 169.68
  C 292.40 179.72 293.48 189.51 292.14 199.51
  C 290.86 209.00 288.52 219.47 284.70 228.27
  C 270.51 261.00 244.39 284.53 210.34 295.79
  C 182.73 304.91 151.99 305.98 123.42 301.49
  C 120.40 301.02 117.31 301.01 114.28 300.93
  Q 114.09 300.92 114.10 300.74
  L 114.12 300.46
  Z"
/>
<path fill="#ffffff" d="
  M 241.19 33.68
  Q 248.99 37.25 256.99 41.64
  A 0.54 0.53 50.4 0 1 256.90 42.62
  Q 255.05 43.22 252.85 42.93
  Q 236.13 40.70 216.19 38.29
  C 199.40 36.27 180.67 36.45 165.50 38.01
  Q 155.02 39.08 139.31 42.95
  Q 116.40 48.59 99.07 60.35
  C 74.84 76.80 57.91 102.64 52.30 131.15
  Q 45.13 167.57 55.77 203.62
  Q 57.61 209.86 60.00 216.47
  A 0.49 0.48 85.6 0 1 59.46 217.11
  Q 57.98 216.84 57.23 215.43
  Q 46.54 195.15 41.34 176.05
  Q 38.56 165.87 38.40 153.37
  Q 38.15 133.64 43.54 115.10
  Q 46.40 105.25 51.33 93.65
  C 64.14 63.54 90.52 39.74 120.87 29.11
  Q 142.36 21.58 161.02 20.35
  Q 171.42 19.67 184.31 20.05
  C 203.93 20.62 224.66 26.11 241.19 33.68
  Z"
/>
<path fill="#ffffff" d="
  M 114.28 300.93
  C 117.31 301.01 120.40 301.02 123.42 301.49
  C 151.99 305.98 182.73 304.91 210.34 295.79
  C 244.39 284.53 270.51 261.00 284.70 228.27
  C 288.52 219.47 290.86 209.00 292.14 199.51
  C 293.48 189.51 292.40 179.72 290.97 169.68
  C 289.45 159.09 285.15 149.09 280.01 138.97
  A 1.38 1.37 -17.6 0 1 281.04 136.99
  Q 281.77 136.89 282.45 137.27
  C 286.53 139.58 289.45 142.64 291.56 146.93
  Q 296.94 157.85 299.04 169.80
  C 300.79 179.74 302.40 189.79 301.84 200.07
  Q 299.87 236.44 279.19 265.67
  C 264.99 285.73 245.45 301.33 222.43 310.05
  Q 201.60 317.93 178.42 319.43
  C 152.62 321.11 126.56 314.47 103.70 304.09
  C 101.63 303.15 99.28 303.14 97.21 302.11
  A 0.42 0.41 42.1 0 1 97.17 301.39
  C 100.81 299.08 105.72 298.48 109.94 297.84
  C 113.80 297.26 117.93 295.71 121.35 293.59
  C 138.08 283.24 152.39 270.48 165.33 255.64
  Q 174.00 245.71 179.80 232.06
  C 183.26 223.91 184.70 215.28 187.88 207.01
  Q 191.67 197.11 197.82 188.30
  Q 198.37 187.51 198.71 186.58
  A 0.44 0.44 0.0 0 0 198.19 186.01
  Q 194.05 187.06 189.96 187.05
  Q 167.62 186.96 143.92 185.60
  C 132.89 184.97 123.38 179.80 122.83 167.52
  Q 122.46 159.15 123.64 152.77
  Q 126.32 138.33 133.24 124.40
  Q 141.68 107.43 153.52 91.99
  C 159.33 84.41 166.03 77.51 171.71 69.75
  A 0.42 0.41 20.2 0 0 171.40 69.09
  Q 166.61 68.70 162.45 69.21
  Q 153.23 70.34 142.31 73.49
  C 118.60 80.35 96.66 97.15 88.12 121.00
  Q 83.32 134.42 83.95 150.72
  C 85.22 183.34 108.02 206.38 139.61 211.38
  Q 146.25 212.43 152.94 213.48
  C 154.24 213.68 155.68 214.56 155.87 216.02
  Q 156.49 220.81 155.47 225.44
  A 1.76 1.76 0.0 0 1 153.90 226.81
  Q 117.38 229.86 90.24 206.46
  Q 81.32 198.77 75.23 186.29
  Q 65.32 165.99 67.36 143.02
  C 69.17 122.72 79.40 102.44 92.73 87.81
  C 101.25 78.47 111.24 72.34 122.90 67.09
  Q 133.20 62.45 145.35 60.19
  Q 158.94 57.67 169.28 57.27
  C 176.81 56.98 183.28 56.42 190.75 53.95
  Q 197.99 51.56 205.67 49.98
  C 209.44 49.20 213.15 47.65 216.99 47.15
  Q 224.71 46.16 233.16 45.02
  Q 233.69 44.95 233.89 45.44
  L 234.01 45.73
  Q 234.11 45.97 233.86 46.05
  C 219.40 50.75 206.89 59.79 195.24 69.95
  C 183.73 79.98 172.85 91.02 165.53 104.08
  Q 156.04 121.03 149.61 139.79
  Q 146.92 147.64 145.30 156.94
  Q 144.95 158.96 145.01 160.99
  A 1.14 1.14 0.0 0 0 145.92 162.08
  Q 152.02 163.38 159.00 163.00
  Q 176.82 162.03 192.57 162.00
  Q 200.55 161.98 208.35 163.32
  C 212.86 164.10 222.20 166.80 222.15 172.69
  Q 222.11 177.21 220.78 181.99
  C 218.40 190.53 216.10 199.24 212.15 206.81
  Q 208.32 214.18 204.97 221.33
  C 197.46 237.39 187.95 252.69 177.31 266.64
  C 175.43 269.10 173.28 271.20 171.14 273.40
  A 0.86 0.86 0.0 0 0 171.68 274.86
  Q 174.09 275.08 176.88 274.77
  Q 207.22 271.42 230.23 253.23
  C 241.47 244.36 250.13 232.25 255.76 219.55
  C 260.66 208.52 261.08 194.49 259.25 182.88
  Q 258.74 179.65 257.69 176.56
  C 252.18 160.47 240.51 147.15 225.91 139.02
  C 213.87 132.31 201.35 129.34 187.73 127.83
  Q 187.10 127.76 186.95 127.13
  Q 185.50 121.04 186.11 113.79
  Q 186.18 113.03 186.95 113.00
  Q 198.80 112.61 211.42 115.31
  C 242.64 121.98 269.75 146.23 275.29 178.23
  Q 276.75 186.66 275.63 198.28
  Q 274.75 207.41 270.37 218.24
  Q 262.33 238.13 249.35 252.89
  C 231.51 273.18 202.46 284.29 175.65 286.23
  Q 165.48 286.97 154.59 287.10
  C 152.06 287.13 149.01 287.99 146.76 289.12
  Q 134.64 295.20 122.13 299.13
  Q 118.33 300.32 114.37 300.24
  Q 114.14 300.23 114.12 300.46
  L 114.10 300.74
  Q 114.09 300.92 114.28 300.93
  Z"
/>
</svg>
